<?xml version="1.0" encoding="UTF-8"?>
<svg version="1.1" xmlns="http://www.w3.org/2000/svg" width="507" height="507">
<path d="M0 0 C0.77754639 0.07516846 1.55509277 0.15033691 2.35620117 0.2277832 C3.2351001 0.30891357 4.11399902 0.39004395 5.01953125 0.47363281 C5.96981201 0.57426025 6.92009277 0.6748877 7.89916992 0.77856445 C8.87587646 0.87596924 9.85258301 0.97337402 10.85888672 1.07373047 C17.71918667 1.7827328 24.56496944 2.60171504 31.39916992 3.52856445 C32.23875244 3.63837646 33.07833496 3.74818848 33.94335938 3.86132812 C39.5903562 4.67190993 44.74463577 6.10473875 50.08666992 8.09106445 C50.85825439 8.37570557 51.62983887 8.66034668 52.42480469 8.95361328 C83.77943924 20.75767329 83.77943924 20.75767329 94.08666992 31.09106445 C95.14485626 34.26562347 95.24305397 36.59443439 95.29199219 39.93139648 C95.32190247 41.74661049 95.32190247 41.74661049 95.35241699 43.59849548 C95.36945554 44.93195404 95.38633729 46.2654146 95.40307617 47.59887695 C95.4237667 48.98658256 95.44481055 50.37428293 95.46618652 51.76197815 C95.5219939 55.47896613 95.5713517 59.19601338 95.61909866 62.91311264 C95.64907547 65.20883117 95.68089359 67.50451667 95.71334839 69.80020142 C96.0532175 93.89760558 96.22829318 117.99114426 96.08666992 142.09106445 C95.42666992 142.09106445 94.76666992 142.09106445 94.08666992 142.09106445 C93.44729492 141.43106445 92.80791992 140.77106445 92.14916992 140.09106445 C69.16625604 116.64717522 32.20806364 110.90010219 1.08666992 108.09106445 C-1.09470861 68.04514584 -1.09470861 68.04514584 -1.91333008 51.09106445 C-2.57333008 50.76106445 -3.23333008 50.43106445 -3.91333008 50.09106445 C-3.91333008 49.43106445 -3.91333008 48.77106445 -3.91333008 48.09106445 C-3.25333008 48.09106445 -2.59333008 48.09106445 -1.91333008 48.09106445 C-1.94282745 47.51921417 -1.97232483 46.94736389 -2.00271606 46.35818481 C-2.30688217 40.42189712 -2.59654593 34.4850293 -2.87768555 28.54760742 C-2.9846181 26.32997578 -3.09528402 24.11252095 -3.2097168 21.89526367 C-3.37328417 18.71352274 -3.52354241 15.53139349 -3.67114258 12.34887695 C-3.72521271 11.35300568 -3.77928284 10.3571344 -3.83499146 9.33108521 C-3.87518402 8.41028168 -3.91537659 7.48947815 -3.95678711 6.54077148 C-3.99675812 5.72802765 -4.03672913 4.91528381 -4.07791138 4.07791138 C-3.84381342 1.2518503 -2.87095232 0.13664224 0 0 Z " fill="#FCFEFC" transform="translate(158.913330078125,189.908935546875)"/>
<path d="M0 0 C0.10027058 11.78736432 -0.21331239 23.5410181 -0.62109375 35.3203125 C-0.68606259 37.23745376 -0.75092572 39.15459861 -0.81568909 41.07174683 C-0.95096612 45.05700841 -1.08822852 49.04219564 -1.22680664 53.02734375 C-1.40398547 58.13019654 -1.57498992 63.23323602 -1.74441433 68.33635139 C-1.87624069 72.28095458 -2.01186097 76.22542055 -2.14857674 80.16985703 C-2.213266 82.05245421 -2.27664773 83.93509682 -2.33868217 85.81778336 C-2.42553976 88.44003685 -2.51764533 91.06205591 -2.61108398 93.68408203 C-2.63554092 94.45605423 -2.65999786 95.22802643 -2.68519592 96.02339172 C-2.824594 99.77962397 -3.1209911 103.34078533 -4 107 C-4.74983154 107.07516846 -5.49966309 107.15033691 -6.2722168 107.2277832 C-9.74490244 107.58084269 -13.21614314 107.94661498 -16.6875 108.3125 C-18.45577148 108.48942383 -18.45577148 108.48942383 -20.25976562 108.66992188 C-27.45296451 109.43851025 -34.35038715 110.63184567 -41.36645508 112.40307617 C-44 113 -44 113 -47 113 C-47.495 114.98 -47.495 114.98 -48 117 C-48.66128906 116.77441406 -49.32257813 116.54882812 -50.00390625 116.31640625 C-54.14304001 115.87928782 -57.220004 117.31691326 -60.9375 118.9375 C-62.05922607 119.41521851 -62.05922607 119.41521851 -63.20361328 119.90258789 C-73.88013427 124.56095955 -83.5881154 130.40166711 -92.890625 137.43359375 C-95 139 -95 139 -97 140 C-97.32049105 126.54789959 -97.58549027 113.09595379 -97.79205322 99.64160156 C-97.90820258 92.41104424 -98.07025703 85.18347238 -98.28440857 77.95523643 C-98.45801604 72.00314348 -98.57342865 66.05069831 -98.67163086 60.09686279 C-98.72371094 57.54043669 -98.79536779 54.98433157 -98.88696289 52.42901611 C-99.59102043 32.2952736 -99.59102043 32.2952736 -95.74194336 26.74243164 C-92.89368823 24.61847841 -90.29979153 23.28748928 -87 22 C-85.76897782 21.26041953 -84.54876772 20.50207061 -83.34765625 19.71484375 C-73.28249942 14.26936651 -62.90790358 10.42423022 -52 7 C-51.33500488 6.78859375 -50.67000977 6.5771875 -49.98486328 6.359375 C-38.44307011 2.76414135 -11.22435644 -5.61217822 0 0 Z " fill="#FDFEFC" transform="translate(360,191)"/>
<path d="M0 0 C2.1464753 0.11344376 4.29220592 0.24106345 6.4375 0.375 C8.22994141 0.47941406 8.22994141 0.47941406 10.05859375 0.5859375 C11.02925781 0.72257813 11.99992188 0.85921875 13 1 C14.38349654 3.76699308 14.25274538 6.14569861 14.38891602 9.24023438 C14.44890274 10.55761597 14.50888947 11.87499756 14.57069397 13.2322998 C14.63202477 14.68610559 14.69308789 16.13992269 14.75390625 17.59375 C14.81950135 19.09803279 14.88533702 20.6023051 14.95140076 22.10656738 C15.08970086 25.28088371 15.22457415 28.45532359 15.35717773 31.62988281 C15.52404628 35.61698452 15.69989461 39.60362706 15.87833595 43.59022522 C16.7006281 62.07227747 17.23354551 80.49507247 17 99 C18.08869385 98.9688208 19.1773877 98.9376416 20.29907227 98.90551758 C50.08140547 98.19307525 82.71439898 105.53797879 106 125 C107.31677734 126.09248047 107.31677734 126.09248047 108.66015625 127.20703125 C113.17251387 131.07775532 113.17251387 131.07775532 115 133 C115 133.66 115 134.32 115 135 C110.24582545 133.43285878 105.50621421 131.83242753 100.78515625 130.16796875 C68.86070184 119.03718814 37.61884835 114.61776767 4 114 C2.87738369 111.75476737 2.83756441 110.44846586 2.76585388 107.95446777 C2.73923676 107.10792633 2.71261963 106.26138489 2.68519592 105.38919067 C2.64851051 103.99287918 2.64851051 103.99287918 2.61108398 102.56835938 C2.58167725 101.58926605 2.55227051 100.61017273 2.52197266 99.60140991 C2.42546581 96.34897187 2.33571138 93.0963846 2.24609375 89.84375 C2.1806304 87.58368885 2.11479385 85.32363848 2.04859924 83.06359863 C1.91048724 78.31558779 1.77544966 73.56750311 1.64282227 68.81933594 C1.473288 62.75114351 1.29848485 56.6831186 1.12164211 50.61513519 C0.95289831 44.81639422 0.78693505 39.01757457 0.62109375 33.21875 C0.58939024 32.11899338 0.55768673 31.01923676 0.52502251 29.88615417 C0.43499418 26.7464093 0.34695357 23.606615 0.25952148 20.46679688 C0.23304031 19.55211639 0.20655914 18.63743591 0.17927551 17.69503784 C0.01772927 11.79521602 -0.02959451 5.90192535 0 0 Z " fill="#F5FBF4" transform="translate(136,207)"/>
<path d="M0 0 C1.41702513 0.14230808 2.8336096 0.28900746 4.25 0.4375 C5.43335938 0.55931641 5.43335938 0.55931641 6.640625 0.68359375 C8.82364639 0.97634993 10.8773182 1.42064419 13 2 C13.06783487 14.13146602 12.85570417 26.25059097 12.59765625 38.37890625 C12.55519803 40.40575635 12.51275342 42.43260674 12.47032166 44.4594574 C12.38157204 48.67587917 12.29140122 52.89226799 12.20043945 57.10864258 C12.08431361 62.50516904 11.97373955 67.90179454 11.86443424 73.29846287 C11.77899481 77.47039689 11.68965746 81.64224089 11.59924126 85.81406975 C11.55675101 87.8047073 11.5156952 89.79537601 11.4761219 91.78607368 C11.42056568 94.561346 11.35951403 97.33644643 11.29711914 100.11157227 C11.28201294 100.92670288 11.26690674 101.7418335 11.25134277 102.58166504 C11.15005935 106.81413555 10.82114798 110.83060035 10 115 C9.24195068 115.01458252 8.48390137 115.02916504 7.70288086 115.04418945 C-27.31235876 115.79132908 -60.69678168 120.57869879 -93.2565918 134.12109375 C-97.79872404 136 -97.79872404 136 -100 136 C-100 134 -100 134 -98.671875 132.58984375 C-96.4705805 130.69726739 -94.24593074 128.83949086 -92 127 C-91.16339844 126.29230469 -90.32679688 125.58460938 -89.46484375 124.85546875 C-74.73877065 113.02904436 -56.97173408 107.07418186 -39 102 C-38.39438232 101.81896729 -37.78876465 101.63793457 -37.16479492 101.45141602 C-34.06392752 100.80480456 -30.988682 100.65914029 -27.828125 100.46484375 C-26.8044986 100.40037804 -26.8044986 100.40037804 -25.76019287 100.33460999 C-23.5903284 100.19875655 -21.42018891 100.06805756 -19.25 99.9375 C-17.77471844 99.84604355 -16.29945771 99.75425044 -14.82421875 99.66210938 C-11.21637893 99.43750574 -7.60827447 99.21752234 -4 99 C-2.86956545 82.89431418 -2.477753 66.75989458 -2 50.625 C-0.98058141 16.260439 -0.98058141 16.260439 0 0 Z " fill="#F5FAF4" transform="translate(366,206)"/>
<path d="M0 0 C6.5521013 5.60039943 12.1729605 11.60159343 13.01171875 20.4765625 C13.26704562 30.51555063 11.70108026 37.15698067 4.82421875 44.58984375 C-1.34472181 49.95613405 -8.92552226 52.78001553 -17.0703125 52.62890625 C-25.88431039 51.78650645 -32.68450752 47.30211602 -38.58984375 40.91796875 C-43.66394166 33.40078667 -45.05982097 25.9866591 -43.98046875 16.92578125 C-41.99465202 9.38504475 -36.09325968 2.98727411 -29.73046875 -1.296875 C-20.44407861 -6.16187875 -8.73517081 -6.06817183 0 0 Z " fill="#FAFDFA" transform="translate(307.27734375,136.58203125)"/>
<path d="M0 0 C5.95381517 4.75785229 10.15815849 11.11345465 11.69921875 18.61328125 C12.58486543 27.13159206 10.14918959 35.21087487 4.8515625 41.8671875 C-1.45553507 48.57012802 -8.93385907 51.48422076 -18.06640625 51.87109375 C-26.09020416 51.36247008 -32.64497237 48.11740845 -38.4296875 42.6171875 C-44.99815857 34.93331568 -45.70077393 26.44746633 -45.0859375 16.6796875 C-43.89484491 10.10135962 -40.06399056 5.01810246 -35.0859375 0.6796875 C-23.59895304 -6.56015918 -11.75655801 -7.44141687 0 0 Z " fill="#FAFDFA" transform="translate(240.0859375,137.3203125)"/>
<path d="M0 0 C0.66 0.33 1.32 0.66 2 1 C1.1857959 1.61496338 0.3715918 2.22992676 -0.46728516 2.86352539 C-3.61921127 6.04874013 -3.57830575 8.93494323 -3.5920105 13.26785278 C-3.56938141 14.2300473 -3.54675232 15.19224182 -3.5234375 16.18359375 C-3.51909698 17.20766327 -3.51475647 18.23173279 -3.51028442 19.28683472 C-3.48949071 22.67108351 -3.43257604 26.05369322 -3.375 29.4375 C-3.35286643 31.78863804 -3.3327123 34.13979548 -3.31445312 36.4909668 C-3.24649741 43.9946635 -3.12519523 51.49707609 -3 59 C-2.95968021 61.5960243 -2.91964166 64.19205298 -2.87988281 66.78808594 C-2.63945265 82.1932222 -2.34531754 97.59686664 -2 113 C-2.99 113.495 -2.99 113.495 -4 114 C-4.41293141 96.66786301 -4.73470925 79.33500846 -5 62 C-5.02138846 60.65783603 -5.04283254 59.31567295 -5.06433105 57.97351074 C-5.19112503 49.94145164 -5.28546859 41.9100452 -5.34204102 33.87713623 C-5.36400198 31.29375378 -5.39475479 28.71043101 -5.43432617 26.1272583 C-5.48788644 22.50123974 -5.50965636 18.8763582 -5.5234375 15.25 C-5.54606659 14.16689545 -5.56869568 13.08379089 -5.5920105 11.96786499 C-5.57122904 4.60966338 -5.57122904 4.60966338 -2.46728516 1.296875 C-1.65308105 0.86890625 -0.83887695 0.4409375 0 0 Z " fill="#D8F4D5" transform="translate(267,217)"/>
<path d="M0 0 C0.66 0 1.32 0 2 0 C2.7242828 16.67584086 3.15740182 33.30814281 3 50 C2.67 50 2.34 50 2 50 C1.67 43.4 1.34 36.8 1 30 C0.34 29.67 -0.32 29.34 -1 29 C-1 28.34 -1 27.68 -1 27 C-0.34 27 0.32 27 1 27 C0.67 18.09 0.34 9.18 0 0 Z " fill="#DEF5D5" transform="translate(156,211)"/>
<path d="M0 0 C1.27310312 0.93441535 2.543388 1.87267111 3.8125 2.8125 C4.52019531 3.33457031 5.22789062 3.85664063 5.95703125 4.39453125 C7.79961207 5.84252498 9.46364869 7.23101505 11 9 C11 9.66 11 10.32 11 11 C5 9 -1 7 -7 5 C-3.98968256 4.06576355 -3.13349732 3.95550089 0 5 C0 3.35 0 1.7 0 0 Z " fill="#D4EBCD" transform="translate(240,331)"/>
<path d="M0 0 C0.66 0.33 1.32 0.66 2 1 C-0.97 3.97 -0.97 3.97 -4 7 C-3.67 7.66 -3.34 8.32 -3 9 C-5.31 9.66 -7.62 10.32 -10 11 C-10 10.34 -10 9.68 -10 9 C-8.3203125 7.34375 -8.3203125 7.34375 -6.125 5.5 C-4.00964496 3.71066742 -1.95980876 1.95980876 0 0 Z " fill="#CDE5C6" transform="translate(276,331)"/>
<path d="M0 0 C0.66 0.33 1.32 0.66 2 1 C0.7934375 1.86625 0.7934375 1.86625 -0.4375 2.75 C-4.55042128 6.73511864 -3.90575435 12.62799777 -4 18 C-4.33 18 -4.66 18 -5 18 C-5.13526139 15.75165504 -5.23210804 13.50097486 -5.3125 11.25 C-5.39951172 9.37054688 -5.39951172 9.37054688 -5.48828125 7.453125 C-5 4 -5 4 -2.48046875 1.546875 C-1.66191406 1.03640625 -0.84335937 0.5259375 0 0 Z " fill="#DAF4D9" transform="translate(267,217)"/>
<path d="M0 0 C0.66 0.33 1.32 0.66 2 1 C0.68 1.99 -0.64 2.98 -2 4 C-1.34 2.68 -0.68 1.36 0 0 Z M-7 8 C-4.375 8.375 -4.375 8.375 -2 9 C-5 11 -5 11 -7.1875 10.625 C-7.785625 10.41875 -8.38375 10.2125 -9 10 C-8.34 9.34 -7.68 8.68 -7 8 Z " fill="#E2F2E0" transform="translate(280,328)"/>
<path d="M0 0 C0.33 0 0.66 0 1 0 C1 4.95 1 9.9 1 15 C0.67 15 0.34 15 0 15 C0 10.05 0 5.1 0 0 Z " fill="#FFFFE8" transform="translate(260,228)"/>
<path d="M0 0 C3.3 0 6.6 0 10 0 C10 0.33 10 0.66 10 1 C6.7 1 3.4 1 0 1 C0 0.67 0 0.34 0 0 Z " fill="#AEFFAE" transform="translate(350,322)"/>
<path d="M0 0 C0.33 0 0.66 0 1 0 C1 2.64 1 5.28 1 8 C0.67 8 0.34 8 0 8 C0 5.36 0 2.72 0 0 Z " fill="#F4FFE9" transform="translate(260,259)"/>
<path d="M0 0 C0.33 0 0.66 0 1 0 C1 2.31 1 4.62 1 7 C0.67 7 0.34 7 0 7 C0 4.69 0 2.38 0 0 Z " fill="#DDFFCB" transform="translate(154,198)"/>
<path d="M0 0 C0.33 0 0.66 0 1 0 C1 1.65 1 3.3 1 5 C0.34 4.34 -0.32 3.68 -1 3 C-0.67 2.01 -0.34 1.02 0 0 Z " fill="#FFFFF0" transform="translate(260,222)"/>
<path d="M0 0 C2 1 2 1 3 3 C2.01 3 1.02 3 0 3 C0 2.01 0 1.02 0 0 Z " fill="#E2FFE2" transform="translate(304,195)"/>
<path d="M0 0 C0.66 0 1.32 0 2 0 C2 1.32 2 2.64 2 4 C1.34 3.67 0.68 3.34 0 3 C0 2.01 0 1.02 0 0 Z " fill="#E6FFA6" transform="translate(192,163)"/>
<path d="M0 0 C1.32 0 2.64 0 4 0 C3.67 0.66 3.34 1.32 3 2 C2.01 1.34 1.02 0.68 0 0 Z " fill="#D2FFD2" transform="translate(192,303)"/>
<path d="M0 0 C0.66 0 1.32 0 2 0 C1.67 1.32 1.34 2.64 1 4 C0.67 2.68 0.34 1.36 0 0 Z " fill="#EEFFEE" transform="translate(360,294)"/>
<path d="M0 0 C0.33 0 0.66 0 1 0 C1 1.65 1 3.3 1 5 C0.67 5 0.34 5 0 5 C0 3.35 0 1.7 0 0 Z " fill="#F2FFE1" transform="translate(260,244)"/>
<path d="M0 0 C0.33 0 0.66 0 1 0 C1 1.65 1 3.3 1 5 C0.67 5 0.34 5 0 5 C0 3.35 0 1.7 0 0 Z " fill="#FFFFFF" transform="translate(363,238)"/>
<path d="M0 0 C1.32 0 2.64 0 4 0 C3.67 0.66 3.34 1.32 3 2 C2.01 1.34 1.02 0.68 0 0 Z " fill="#FFFFFF" transform="translate(201,185)"/>
<path d="M0 0 C0.66 0 1.32 0 2 0 C2 0.66 2 1.32 2 2 C1.01 1.67 0.02 1.34 -1 1 C-0.67 0.67 -0.34 0.34 0 0 Z " fill="#FFFFFF" transform="translate(308,184)"/>
<path d="M0 0 C4 1 4 1 4 1 Z " fill="#8AFF8A" transform="translate(155,322)"/>
<path d="M0 0 C1 4 1 4 1 4 Z " fill="#FFFFE9" transform="translate(260,270)"/>
<path d="M0 0 C0 3 0 3 0 3 Z " fill="#FFFFE9" transform="translate(260,255)"/>
<path d="M0 0 C0.66 0.66 1.32 1.32 2 2 C1.01 2.495 1.01 2.495 0 3 C0 2.01 0 1.02 0 0 Z " fill="#E9FFE9" transform="translate(255,255)"/>
<path d="M0 0 C4 1 4 1 4 1 Z " fill="#D9FFD9" transform="translate(307,196)"/>
<path d="M0 0 C0.66 0.66 1.32 1.32 2 2 C1.01 1.67 0.02 1.34 -1 1 C-0.67 0.67 -0.34 0.34 0 0 Z " fill="#EFFFEF" transform="translate(316,177)"/>
<path d="M0 0 C0.99 1.485 0.99 1.485 2 3 C1.34 3 0.68 3 0 3 C0 2.01 0 1.02 0 0 Z " fill="#EFFFEF" transform="translate(264,172)"/>
<path d="M0 0 C0.99 0 1.98 0 3 0 C2.67 0.66 2.34 1.32 2 2 C1.34 1.34 0.68 0.68 0 0 Z " fill="#FFFF9F" transform="translate(192,168)"/>
<path d="M0 0 C0.99 0.495 0.99 0.495 2 1 C1.01 1.495 1.01 1.495 0 2 C0 1.34 0 0.68 0 0 Z " fill="#FFFFFF" transform="translate(268,335)"/>
<path d="M0 0 C0.66 0 1.32 0 2 0 C1.67 0.66 1.34 1.32 1 2 C0.67 1.34 0.34 0.68 0 0 Z " fill="#E2FFE2" transform="translate(245,333)"/>
<path d="M0 0 C3 1 3 1 3 1 Z " fill="#C6FFC6" transform="translate(307,329)"/>
<path d="M0 0 C3 1 3 1 3 1 Z " fill="#B8FFB8" transform="translate(163,322)"/>
<path d="M0 0 C0.66 0.66 1.32 1.32 2 2 C1.34 2 0.68 2 0 2 C0 1.34 0 0.68 0 0 Z " fill="#E0FFE0" transform="translate(224,313)"/>
<path d="M0 0 C0.99 0.495 0.99 0.495 2 1 C1.01 1.495 1.01 1.495 0 2 C0 1.34 0 0.68 0 0 Z " fill="#C6FFC6" transform="translate(324,307)"/>
<path d="M0 0 C3 1 3 1 3 1 Z " fill="#E9FFE9" transform="translate(200,305)"/>
<path d="M0 0 C3 1 3 1 3 1 Z " fill="#FFFFFF" transform="translate(353,304)"/>
<path d="M0 0 C0.33 0.66 0.66 1.32 1 2 C0.34 1.67 -0.32 1.34 -1 1 C-0.67 0.67 -0.34 0.34 0 0 Z " fill="#FFFFFF" transform="translate(361,303)"/>
<path d="M0 0 C3 1 3 1 3 1 Z " fill="#FFFFFF" transform="translate(181,301)"/>
<path d="" fill="#E2FFE2" transform="translate(0,0)"/>
<path d="" fill="#FFFFFF" transform="translate(0,0)"/>
<path d="" fill="#FFFFFF" transform="translate(0,0)"/>
<path d="M0 0 C0.66 0.66 1.32 1.32 2 2 C1.34 2 0.68 2 0 2 C0 1.34 0 0.68 0 0 Z " fill="#FFFFFF" transform="translate(359,247)"/>
<path d="" fill="#C6FFC6" transform="translate(0,0)"/>
<path d="" fill="#C6FFC6" transform="translate(0,0)"/>
<path d="" fill="#FFFFFF" transform="translate(0,0)"/>
<path d="M0 0 C3 1 3 1 3 1 Z " fill="#E2FFE2" transform="translate(311,195)"/>
<path d="M0 0 C0.33 0.66 0.66 1.32 1 2 C0.34 1.67 -0.32 1.34 -1 1 C-0.67 0.67 -0.34 0.34 0 0 Z " fill="#AAFFAA" transform="translate(359,187)"/>
<path d="M0 0 C3 1 3 1 3 1 Z " fill="#E2FFE2" transform="translate(200,182)"/>
<path d="M0 0 C2 1 2 1 2 1 Z " fill="#D4FFD4" transform="translate(303,330)"/>
<path d="M0 0 C2 1 2 1 2 1 Z " fill="#FFFFFF" transform="translate(202,328)"/>
<path d="M0 0 C2 1 2 1 2 1 Z " fill="#FFFFFF" transform="translate(197,327)"/>
<path d="M0 0 C2 1 2 1 2 1 Z " fill="#FFFFFF" transform="translate(365,322)"/>
<path d="M0 0 C2 1 2 1 2 1 Z " fill="#FFFFFF" transform="translate(295,317)"/>
<path d="M0 0 C2 1 2 1 2 1 Z " fill="#E5FFE5" transform="translate(215,315)"/>
<path d="M0 0 C2 1 2 1 2 1 Z " fill="#FFFFFF" transform="translate(215,310)"/>
<path d="M0 0 C2 1 2 1 2 1 Z " fill="#D4FFD4" transform="translate(318,309)"/>
<path d="M0 0 C2 1 2 1 2 1 Z " fill="#FFFFFF" transform="translate(302,309)"/>
<path d="M0 0 C2 1 2 1 2 1 Z " fill="#D4FFD4" transform="translate(326,302)"/>
<path d="M0 0 C2 1 2 1 2 1 Z " fill="#FFFFFF" transform="translate(187,302)"/>
<path d="M0 0 C2 1 2 1 2 1 Z " fill="#FFFFFF" transform="translate(357,297)"/>
<path d="" fill="#D4FFD4" transform="translate(0,0)"/>
<path d="" fill="#FFFFFF" transform="translate(0,0)"/>
<path d="" fill="#FFFFFF" transform="translate(0,0)"/>
<path d="" fill="#D4FFD4" transform="translate(0,0)"/>
<path d="" fill="#FFFFFF" transform="translate(0,0)"/>
<path d="" fill="#FFFFFF" transform="translate(0,0)"/>
<path d="" fill="#FFFFFF" transform="translate(0,0)"/>
<path d="" fill="#FFFFFF" transform="translate(0,0)"/>
<path d="" fill="#FFFFFF" transform="translate(0,0)"/>
<path d="" fill="#FFFFFF" transform="translate(0,0)"/>
<path d="" fill="#D4FFD4" transform="translate(0,0)"/>
<path d="" fill="#FFFFFF" transform="translate(0,0)"/>
<path d="" fill="#FFFFFF" transform="translate(0,0)"/>
<path d="" fill="#BFFFBF" transform="translate(0,0)"/>
<path d="" fill="#FFFFFF" transform="translate(0,0)"/>
<path d="M0 0 C2 1 2 1 2 1 Z " fill="#D4FFD4" transform="translate(209,197)"/>
<path d="M0 0 C2 1 2 1 2 1 Z " fill="#FFFFFF" transform="translate(206,196)"/>
<path d="M0 0 C2 1 2 1 2 1 Z " fill="#FFFFFF" transform="translate(292,193)"/>
<path d="M0 0 C2 1 2 1 2 1 Z " fill="#DFFFDF" transform="translate(277,186)"/>
<path d="" fill="#FFFFFF" transform="translate(0,0)"/>
<path d="" fill="#FFFFFF" transform="translate(0,0)"/>
<path d="M0 0 C2 1 2 1 2 1 Z " fill="#D4FFD4" transform="translate(200,180)"/>
<path d="" fill="#FFFFFF" transform="translate(0,0)"/>
<path d="M0 0 C2 1 2 1 2 1 Z " fill="#FFFFFF" transform="translate(246,141)"/>
<path d="M0 0 C2 1 2 1 2 1 Z " fill="#FFFFFF" transform="translate(280,132)"/>
<path d="M0 0 C2 1 2 1 2 1 Z " fill="#BFFFBF" transform="translate(217,131)"/>
<path d="" fill="#00FF00" transform="translate(0,0)"/>
<path d="" fill="#80FF80" transform="translate(0,0)"/>
<path d="" fill="#FFFFFF" transform="translate(0,0)"/>
<path d="" fill="#B6DBA4" transform="translate(0,0)"/>
<path d="" fill="#FFFFFF" transform="translate(0,0)"/>
<path d="" fill="#80FF80" transform="translate(0,0)"/>
<path d="" fill="#FFFFFF" transform="translate(0,0)"/>
<path d="" fill="#FFFFFF" transform="translate(0,0)"/>
<path d="" fill="#AAFFAA" transform="translate(0,0)"/>
<path d="" fill="#80FF80" transform="translate(0,0)"/>
<path d="" fill="#AAFFAA" transform="translate(0,0)"/>
<path d="" fill="#FFFFFF" transform="translate(0,0)"/>
<path d="" fill="#FFFFFF" transform="translate(0,0)"/>
<path d="" fill="#FFFFFF" transform="translate(0,0)"/>
<path d="" fill="#80FF80" transform="translate(0,0)"/>
<path d="" fill="#FFFFFF" transform="translate(0,0)"/>
<path d="" fill="#FFFFFF" transform="translate(0,0)"/>
<path d="" fill="#FFFFFF" transform="translate(0,0)"/>
<path d="" fill="#AAFFAA" transform="translate(0,0)"/>
<path d="" fill="#80FF80" transform="translate(0,0)"/>
<path d="" fill="#FFFFFF" transform="translate(0,0)"/>
<path d="" fill="#80FF80" transform="translate(0,0)"/>
<path d="" fill="#80FF80" transform="translate(0,0)"/>
<path d="" fill="#FFFFFF" transform="translate(0,0)"/>
<path d="" fill="#FFFF80" transform="translate(0,0)"/>
<path d="" fill="#FFFF80" transform="translate(0,0)"/>
<path d="" fill="#FFFFFF" transform="translate(0,0)"/>
<path d="" fill="#FFFFFF" transform="translate(0,0)"/>
<path d="" fill="#FFFFFF" transform="translate(0,0)"/>
<path d="" fill="#FFFF80" transform="translate(0,0)"/>
<path d="" fill="#AAFFAA" transform="translate(0,0)"/>
<path d="" fill="#FFFFFF" transform="translate(0,0)"/>
<path d="" fill="#FFFFFF" transform="translate(0,0)"/>
<path d="" fill="#FFFFFF" transform="translate(0,0)"/>
<path d="" fill="#CCFFCC" transform="translate(0,0)"/>
<path d="" fill="#FFFFFF" transform="translate(0,0)"/>
<path d="" fill="#FFFFFF" transform="translate(0,0)"/>
<path d="" fill="#FFFFFF" transform="translate(0,0)"/>
<path d="" fill="#FFFFFF" transform="translate(0,0)"/>
<path d="" fill="#FFFFFF" transform="translate(0,0)"/>
<path d="" fill="#FFFFFF" transform="translate(0,0)"/>
<path d="" fill="#FFFFFF" transform="translate(0,0)"/>
<path d="" fill="#FFFFFF" transform="translate(0,0)"/>
<path d="" fill="#BFFFBF" transform="translate(0,0)"/>
<path d="" fill="#FFFFFF" transform="translate(0,0)"/>
<path d="" fill="#FFFFFF" transform="translate(0,0)"/>
<path d="" fill="#FFFFFF" transform="translate(0,0)"/>
<path d="" fill="#CCFFCC" transform="translate(0,0)"/>
<path d="" fill="#FFFFFF" transform="translate(0,0)"/>
<path d="" fill="#AAFFAA" transform="translate(0,0)"/>
<path d="" fill="#FFFFFF" transform="translate(0,0)"/>
<path d="" fill="#FFFFFF" transform="translate(0,0)"/>
<path d="" fill="#FFFFFF" transform="translate(0,0)"/>
<path d="" fill="#FFFFFF" transform="translate(0,0)"/>
<path d="" fill="#FFFFFF" transform="translate(0,0)"/>
<path d="" fill="#AAFFAA" transform="translate(0,0)"/>
<path d="" fill="#AAFFAA" transform="translate(0,0)"/>
<path d="" fill="#FFFFFF" transform="translate(0,0)"/>
<path d="" fill="#FFFFFF" transform="translate(0,0)"/>
<path d="" fill="#FFFFFF" transform="translate(0,0)"/>
<path d="" fill="#FFFFFF" transform="translate(0,0)"/>
<path d="" fill="#FFFFFF" transform="translate(0,0)"/>
<path d="" fill="#FFFFFF" transform="translate(0,0)"/>
<path d="" fill="#FFFFFF" transform="translate(0,0)"/>
<path d="" fill="#FFFFFF" transform="translate(0,0)"/>
<path d="" fill="#FFFFFF" transform="translate(0,0)"/>
<path d="" fill="#FFFFFF" transform="translate(0,0)"/>
<path d="" fill="#FFFFFF" transform="translate(0,0)"/>
<path d="" fill="#FFFFFF" transform="translate(0,0)"/>
<path d="" fill="#FFFFFF" transform="translate(0,0)"/>
<path d="" fill="#FFFFFF" transform="translate(0,0)"/>
<path d="" fill="#FFFFFF" transform="translate(0,0)"/>
<path d="" fill="#FFFFFF" transform="translate(0,0)"/>
<path d="" fill="#FFFFFF" transform="translate(0,0)"/>
<path d="" fill="#FFFFFF" transform="translate(0,0)"/>
<path d="" fill="#FFFFFF" transform="translate(0,0)"/>
<path d="" fill="#FFFFFF" transform="translate(0,0)"/>
<path d="" fill="#FFFFFF" transform="translate(0,0)"/>
<path d="" fill="#FFFFFF" transform="translate(0,0)"/>
<path d="" fill="#FFFFFF" transform="translate(0,0)"/>
<path d="" fill="#FFFFFF" transform="translate(0,0)"/>
<path d="" fill="#FFFFFF" transform="translate(0,0)"/>
<path d="" fill="#FFFFFF" transform="translate(0,0)"/>
<path d="" fill="#80FF80" transform="translate(0,0)"/>
<path d="" fill="#AAFFAA" transform="translate(0,0)"/>
<path d="" fill="#FFFFFF" transform="translate(0,0)"/>
<path d="" fill="#FFFFFF" transform="translate(0,0)"/>
<path d="" fill="#FFFFFF" transform="translate(0,0)"/>
<path d="" fill="#FFFFFF" transform="translate(0,0)"/>
<path d="" fill="#FFFFFF" transform="translate(0,0)"/>
<path d="" fill="#FFFFFF" transform="translate(0,0)"/>
<path d="" fill="#FFFFFF" transform="translate(0,0)"/>
<path d="" fill="#FFFFFF" transform="translate(0,0)"/>
<path d="" fill="#FFFFFF" transform="translate(0,0)"/>
<path d="" fill="#FFFFFF" transform="translate(0,0)"/>
<path d="" fill="#FFFFFF" transform="translate(0,0)"/>
<path d="" fill="#FFFFFF" transform="translate(0,0)"/>
<path d="" fill="#80FF80" transform="translate(0,0)"/>
<path d="" fill="#FFFFFF" transform="translate(0,0)"/>
<path d="" fill="#AAFFAA" transform="translate(0,0)"/>
<path d="" fill="#80FF80" transform="translate(0,0)"/>
<path d="" fill="#FFFFFF" transform="translate(0,0)"/>
<path d="" fill="#FFFFFF" transform="translate(0,0)"/>
<path d="" fill="#FFFFFF" transform="translate(0,0)"/>
<path d="" fill="#FFFFFF" transform="translate(0,0)"/>
<path d="" fill="#AAFFAA" transform="translate(0,0)"/>
<path d="" fill="#FFFFFF" transform="translate(0,0)"/>
<path d="" fill="#FFFFFF" transform="translate(0,0)"/>
<path d="" fill="#FFFFFF" transform="translate(0,0)"/>
<path d="" fill="#AAFFAA" transform="translate(0,0)"/>
<path d="" fill="#FFFFFF" transform="translate(0,0)"/>
<path d="" fill="#FFFFFF" transform="translate(0,0)"/>
<path d="" fill="#FFFFFF" transform="translate(0,0)"/>
<path d="" fill="#FFFFFF" transform="translate(0,0)"/>
<path d="" fill="#FFFFFF" transform="translate(0,0)"/>
<path d="" fill="#FFFFFF" transform="translate(0,0)"/>
<path d="" fill="#FFFFFF" transform="translate(0,0)"/>
<path d="" fill="#FFFFFF" transform="translate(0,0)"/>
<path d="" fill="#FFFFFF" transform="translate(0,0)"/>
<path d="" fill="#FFFFFF" transform="translate(0,0)"/>
<path d="" fill="#FFFFFF" transform="translate(0,0)"/>
<path d="" fill="#FFFFFF" transform="translate(0,0)"/>
<path d="" fill="#AAFFAA" transform="translate(0,0)"/>
<path d="" fill="#FFFFFF" transform="translate(0,0)"/>
<path d="" fill="#FFFFFF" transform="translate(0,0)"/>
<path d="" fill="#FFFFFF" transform="translate(0,0)"/>
<path d="" fill="#FFFFFF" transform="translate(0,0)"/>
<path d="" fill="#FFFFFF" transform="translate(0,0)"/>
<path d="" fill="#FFFFFF" transform="translate(0,0)"/>
<path d="" fill="#FFFFFF" transform="translate(0,0)"/>
<path d="" fill="#FFFFFF" transform="translate(0,0)"/>
<path d="" fill="#FFFFFF" transform="translate(0,0)"/>
<path d="" fill="#FFFFFF" transform="translate(0,0)"/>
<path d="" fill="#FFFFFF" transform="translate(0,0)"/>
<path d="" fill="#FFFFFF" transform="translate(0,0)"/>
<path d="" fill="#FFFFFF" transform="translate(0,0)"/>
<path d="" fill="#FFFFFF" transform="translate(0,0)"/>
<path d="" fill="#FFFFFF" transform="translate(0,0)"/>
<path d="" fill="#FFFFFF" transform="translate(0,0)"/>
<path d="" fill="#FFFFFF" transform="translate(0,0)"/>
<path d="" fill="#FFFFFF" transform="translate(0,0)"/>
<path d="" fill="#AAFFAA" transform="translate(0,0)"/>
<path d="" fill="#FFFFFF" transform="translate(0,0)"/>
<path d="" fill="#BFFFBF" transform="translate(0,0)"/>
<path d="" fill="#FFFFFF" transform="translate(0,0)"/>
<path d="" fill="#FFFFFF" transform="translate(0,0)"/>
<path d="" fill="#FFFFFF" transform="translate(0,0)"/>
<path d="" fill="#FFFFFF" transform="translate(0,0)"/>
<path d="" fill="#FFFFFF" transform="translate(0,0)"/>
<path d="" fill="#FFFFFF" transform="translate(0,0)"/>
<path d="" fill="#AAFFAA" transform="translate(0,0)"/>
<path d="" fill="#FFFF80" transform="translate(0,0)"/>
<path d="" fill="#80FF80" transform="translate(0,0)"/>
<path d="" fill="#FFFFFF" transform="translate(0,0)"/>
<path d="" fill="#FFFFFF" transform="translate(0,0)"/>
<path d="" fill="#80FF80" transform="translate(0,0)"/>
<path d="" fill="#FFFFFF" transform="translate(0,0)"/>
<path d="" fill="#FFFFFF" transform="translate(0,0)"/>
<path d="" fill="#AAFFAA" transform="translate(0,0)"/>
<path d="" fill="#AAFFAA" transform="translate(0,0)"/>
<path d="" fill="#FFFFFF" transform="translate(0,0)"/>
<path d="" fill="#FFFFFF" transform="translate(0,0)"/>
<path d="" fill="#FFFFFF" transform="translate(0,0)"/>
<path d="" fill="#FFFFFF" transform="translate(0,0)"/>
<path d="" fill="#FFFFFF" transform="translate(0,0)"/>
<path d="" fill="#FFFFFF" transform="translate(0,0)"/>
<path d="" fill="#FFFFFF" transform="translate(0,0)"/>
<path d="" fill="#FFFFFF" transform="translate(0,0)"/>
<path d="" fill="#AAFFAA" transform="translate(0,0)"/>
<path d="" fill="#FFFFFF" transform="translate(0,0)"/>
<path d="" fill="#FFFFFF" transform="translate(0,0)"/>
<path d="" fill="#FFFFFF" transform="translate(0,0)"/>
<path d="" fill="#AAFFAA" transform="translate(0,0)"/>
<path d="" fill="#FFFFFF" transform="translate(0,0)"/>
<path d="" fill="#FFFFFF" transform="translate(0,0)"/>
<path d="" fill="#FFFFFF" transform="translate(0,0)"/>
<path d="" fill="#FFFFFF" transform="translate(0,0)"/>
<path d="" fill="#FFFFFF" transform="translate(0,0)"/>
<path d="" fill="#FFFFFF" transform="translate(0,0)"/>
<path d="" fill="#FFFFFF" transform="translate(0,0)"/>
<path d="" fill="#FFFFFF" transform="translate(0,0)"/>
<path d="" fill="#FFFFFF" transform="translate(0,0)"/>
<path d="" fill="#FFFFFF" transform="translate(0,0)"/>
<path d="" fill="#FFFFFF" transform="translate(0,0)"/>
<path d="" fill="#FFFFFF" transform="translate(0,0)"/>
<path d="" fill="#FFFFFF" transform="translate(0,0)"/>
<path d="" fill="#FFFFFF" transform="translate(0,0)"/>
<path d="" fill="#FFFFFF" transform="translate(0,0)"/>
<path d="" fill="#FFFFFF" transform="translate(0,0)"/>
<path d="" fill="#FFFFFF" transform="translate(0,0)"/>
<path d="" fill="#FFFFFF" transform="translate(0,0)"/>
<path d="" fill="#AAFFAA" transform="translate(0,0)"/>
<path d="" fill="#FFFFFF" transform="translate(0,0)"/>
<path d="" fill="#FFFFFF" transform="translate(0,0)"/>
<path d="" fill="#FFFFFF" transform="translate(0,0)"/>
<path d="" fill="#FFFFFF" transform="translate(0,0)"/>
<path d="" fill="#FFFFFF" transform="translate(0,0)"/>
<path d="" fill="#FFFFFF" transform="translate(0,0)"/>
<path d="" fill="#FFFFFF" transform="translate(0,0)"/>
<path d="" fill="#AAFFAA" transform="translate(0,0)"/>
<path d="" fill="#FFFFFF" transform="translate(0,0)"/>
<path d="" fill="#FFFFFF" transform="translate(0,0)"/>
<path d="" fill="#FFFFFF" transform="translate(0,0)"/>
<path d="" fill="#FFFFFF" transform="translate(0,0)"/>
<path d="" fill="#FFFFFF" transform="translate(0,0)"/>
<path d="" fill="#FFFFFF" transform="translate(0,0)"/>
<path d="" fill="#FFFFFF" transform="translate(0,0)"/>
<path d="" fill="#FFFFFF" transform="translate(0,0)"/>
<path d="" fill="#FFFFFF" transform="translate(0,0)"/>
<path d="" fill="#FFFF80" transform="translate(0,0)"/>
<path d="" fill="#80FF80" transform="translate(0,0)"/>
<path d="" fill="#FFFFFF" transform="translate(0,0)"/>
<path d="" fill="#FFFFFF" transform="translate(0,0)"/>
<path d="" fill="#FFFFFF" transform="translate(0,0)"/>
<path d="" fill="#FFFFFF" transform="translate(0,0)"/>
<path d="" fill="#FFFFFF" transform="translate(0,0)"/>
<path d="" fill="#80FF80" transform="translate(0,0)"/>
<path d="" fill="#FFFFFF" transform="translate(0,0)"/>
<path d="" fill="#FFFFFF" transform="translate(0,0)"/>
<path d="" fill="#FFFFFF" transform="translate(0,0)"/>
<path d="" fill="#80FF80" transform="translate(0,0)"/>
</svg>
